<svg width="100" height="100" viewBox="0 0 100 100" fill="none" xmlns="http://www.w3.org/2000/svg">
<rect width="100" height="100" rx="10" fill="#FFC331"/>
<path d="M14.824 41.232C15.608 41.232 16.232 41.488 16.696 42C17.168 42.504 17.404 43.2 17.404 44.088V48H15.364V44.364C15.364 43.916 15.248 43.568 15.016 43.32C14.784 43.072 14.472 42.948 14.08 42.948C13.688 42.948 13.376 43.072 13.144 43.32C12.912 43.568 12.796 43.916 12.796 44.364V48H10.744V41.304H12.796V42.192C13.004 41.896 13.284 41.664 13.636 41.496C13.988 41.32 14.384 41.232 14.824 41.232ZM21.8779 48.096C21.2219 48.096 20.6299 47.956 20.1019 47.676C19.5819 47.396 19.1699 46.996 18.8659 46.476C18.5699 45.956 18.4219 45.348 18.4219 44.652C18.4219 43.964 18.5739 43.36 18.8779 42.84C19.1819 42.312 19.5979 41.908 20.1259 41.628C20.6539 41.348 21.2459 41.208 21.9019 41.208C22.5579 41.208 23.1499 41.348 23.6779 41.628C24.2059 41.908 24.6219 42.312 24.9259 42.84C25.2299 43.36 25.3819 43.964 25.3819 44.652C25.3819 45.34 25.2259 45.948 24.9139 46.476C24.6099 46.996 24.1899 47.396 23.6539 47.676C23.1259 47.956 22.5339 48.096 21.8779 48.096ZM21.8779 46.32C22.2699 46.32 22.6019 46.176 22.8739 45.888C23.1539 45.6 23.2939 45.188 23.2939 44.652C23.2939 44.116 23.1579 43.704 22.8859 43.416C22.6219 43.128 22.2939 42.984 21.9019 42.984C21.5019 42.984 21.1699 43.128 20.9059 43.416C20.6419 43.696 20.5099 44.108 20.5099 44.652C20.5099 45.188 20.6379 45.6 20.8939 45.888C21.1579 46.176 21.4859 46.32 21.8779 46.32ZM30.2026 46.26V48H29.1586C28.4146 48 27.8346 47.82 27.4186 47.46C27.0026 47.092 26.7946 46.496 26.7946 45.672V43.008H25.9786V41.304H26.7946V39.672H28.8466V41.304H30.1906V43.008H28.8466V45.696C28.8466 45.896 28.8946 46.04 28.9906 46.128C29.0866 46.216 29.2466 46.26 29.4706 46.26H30.2026ZM12.796 53.252C12.996 52.94 13.272 52.688 13.624 52.496C13.976 52.304 14.388 52.208 14.86 52.208C15.412 52.208 15.912 52.348 16.36 52.628C16.808 52.908 17.16 53.308 17.416 53.828C17.68 54.348 17.812 54.952 17.812 55.64C17.812 56.328 17.68 56.936 17.416 57.464C17.16 57.984 16.808 58.388 16.36 58.676C15.912 58.956 15.412 59.096 14.86 59.096C14.396 59.096 13.984 59 13.624 58.808C13.272 58.616 12.996 58.368 12.796 58.064V62.192H10.744V52.304H12.796V53.252ZM15.724 55.64C15.724 55.128 15.58 54.728 15.292 54.44C15.012 54.144 14.664 53.996 14.248 53.996C13.84 53.996 13.492 54.144 13.204 54.44C12.924 54.736 12.784 55.14 12.784 55.652C12.784 56.164 12.924 56.568 13.204 56.864C13.492 57.16 13.84 57.308 14.248 57.308C14.656 57.308 15.004 57.16 15.292 56.864C15.58 56.56 15.724 56.152 15.724 55.64ZM19.9205 51.608C19.5605 51.608 19.2645 51.504 19.0325 51.296C18.8085 51.08 18.6965 50.816 18.6965 50.504C18.6965 50.184 18.8085 49.92 19.0325 49.712C19.2645 49.496 19.5605 49.388 19.9205 49.388C20.2725 49.388 20.5605 49.496 20.7845 49.712C21.0165 49.92 21.1325 50.184 21.1325 50.504C21.1325 50.816 21.0165 51.08 20.7845 51.296C20.5605 51.504 20.2725 51.608 19.9205 51.608ZM20.9405 52.304V59H18.8885V52.304H20.9405ZM26.3876 59L25.1036 57.14L24.0236 59H21.8036L24.0116 55.58L21.7436 52.304H24.0476L25.3316 54.152L26.4116 52.304H28.6316L26.3876 55.676L28.6916 59H26.3876ZM35.7943 55.544C35.7943 55.736 35.7823 55.936 35.7583 56.144H31.1143C31.1463 56.56 31.2783 56.88 31.5103 57.104C31.7503 57.32 32.0423 57.428 32.3863 57.428C32.8983 57.428 33.2543 57.212 33.4543 56.78H35.6383C35.5263 57.22 35.3223 57.616 35.0263 57.968C34.7383 58.32 34.3743 58.596 33.9343 58.796C33.4943 58.996 33.0023 59.096 32.4583 59.096C31.8023 59.096 31.2183 58.956 30.7063 58.676C30.1943 58.396 29.7943 57.996 29.5063 57.476C29.2183 56.956 29.0743 56.348 29.0743 55.652C29.0743 54.956 29.2143 54.348 29.4943 53.828C29.7823 53.308 30.1823 52.908 30.6943 52.628C31.2063 52.348 31.7943 52.208 32.4583 52.208C33.1063 52.208 33.6823 52.344 34.1863 52.616C34.6903 52.888 35.0823 53.276 35.3623 53.78C35.6503 54.284 35.7943 54.872 35.7943 55.544ZM33.6943 55.004C33.6943 54.652 33.5743 54.372 33.3343 54.164C33.0943 53.956 32.7943 53.852 32.4343 53.852C32.0903 53.852 31.7983 53.952 31.5583 54.152C31.3263 54.352 31.1823 54.636 31.1263 55.004H33.6943ZM38.9288 50.12V59H36.8768V50.12H38.9288Z" fill="white"/>
<path d="M15.99 13.63C16.49 12.85 17.18 12.22 18.06 11.74C18.94 11.26 19.97 11.02 21.15 11.02C22.53 11.02 23.78 11.37 24.9 12.07C26.02 12.77 26.9 13.77 27.54 15.07C28.2 16.37 28.53 17.88 28.53 19.6C28.53 21.32 28.2 22.84 27.54 24.16C26.9 25.46 26.02 26.47 24.9 27.19C23.78 27.89 22.53 28.24 21.15 28.24C19.99 28.24 18.96 28 18.06 27.52C17.18 27.04 16.49 26.42 15.99 25.66V35.98H10.86V11.26H15.99V13.63ZM23.31 19.6C23.31 18.32 22.95 17.32 22.23 16.6C21.53 15.86 20.66 15.49 19.62 15.49C18.6 15.49 17.73 15.86 17.01 16.6C16.31 17.34 15.96 18.35 15.96 19.63C15.96 20.91 16.31 21.92 17.01 22.66C17.73 23.4 18.6 23.77 19.62 23.77C20.64 23.77 21.51 23.4 22.23 22.66C22.95 21.9 23.31 20.88 23.31 19.6ZM41.1213 28L37.9113 23.35L35.2113 28H29.6613L35.1813 19.45L29.5113 11.26H35.2713L38.4813 15.88L41.1813 11.26H46.7313L41.1213 19.69L46.8813 28H41.1213Z" fill="white"/>
<g clip-path="url(#clip0_133_15)">
<path d="M83.966 73C79.244 73 79.1933 74.8329 79.1933 75.2102C79.1933 75.7825 79.1933 77.5 79.1933 77.5H84.0569V78.1875C84.0569 78.1875 78.9929 78.1875 77.2615 78.1875C75.8162 78.1875 74 79.0662 74 82.9602C74 86.5371 75.4167 87.9204 76.8465 87.9204C77.2711 87.9204 78.5455 87.9204 78.5455 87.9204C78.5455 87.9204 78.5455 86.1449 78.5455 85.534C78.5455 84.5356 79.0402 82.6875 81.3465 82.6875C84.2393 82.6875 84.9776 82.6875 86.1704 82.6875C86.8798 82.6875 88.8805 82.3791 88.8805 80.0682C88.8805 77.6224 88.8805 76.8155 88.8805 75.6647C88.8807 75.0915 88.7827 73 83.966 73ZM81.2842 74.5398C81.7682 74.5398 82.1593 74.9307 82.1593 75.4149C82.1593 75.8987 81.7682 76.29 81.2842 76.29C80.8002 76.29 80.4091 75.8989 80.4091 75.4149C80.4091 74.9307 80.8002 74.5398 81.2842 74.5398Z" fill="white"/>
<path d="M84.034 93C88.7538 93 88.8125 91.1325 88.8125 90.7898C88.8125 90.2175 88.8125 88.5 88.8125 88.5H83.9431V87.8125C83.9431 87.8125 89.0398 87.8125 90.7385 87.8125C92.1947 87.8125 94 86.9118 94 83.0398C94 78.7995 92.084 78.0796 91.1534 78.0796C90.7287 78.0796 89.4545 78.0796 89.4545 78.0796C89.4545 78.0796 89.4545 79.9371 89.4545 80.466C89.4545 81.4644 88.9762 83.3125 86.6534 83.3125C83.7607 83.3125 83.1124 83.3125 81.8294 83.3125C81.1218 83.3125 79.1193 83.6573 79.1193 85.9318C79.1193 88.5636 79.1193 89.2527 79.1193 90.3353C79.1193 91.2862 79.7004 93 84.034 93ZM86.716 91.4602C86.232 91.4602 85.8409 91.0691 85.8409 90.5851C85.8409 90.1011 86.2318 89.71 86.716 89.71C87.1998 89.71 87.5911 90.1011 87.5911 90.5851C87.5911 91.0691 87.1998 91.4602 86.716 91.4602Z" fill="white"/>
</g>
<defs>
<clipPath id="clip0_133_15">
<rect width="20" height="20" fill="white" transform="translate(74 73)"/>
</clipPath>
</defs>
</svg>
