<?xml version="1.0" encoding="UTF-8"?>
<!DOCTYPE svg PUBLIC "-//W3C//DTD SVG 1.1//EN" "http://www.w3.org/Graphics/SVG/1.1/DTD/svg11.dtd">
<svg xmlns="http://www.w3.org/2000/svg" style="background: #ffffff; background-color: #ffffff; color-scheme: light;" xmlns:xlink="http://www.w3.org/1999/xlink" version="1.1" width="946px" height="1377px" viewBox="0 0 946 1377"><defs/><rect fill="#ffffff" width="100%" height="100%" x="0" y="0" style="fill: rgb(255, 255, 255);"/><g><g data-cell-id="0"><g data-cell-id="1"><g data-cell-id="Q23kgnqs2NdtarIExRNF-116"><g transform="translate(0.5,0.5)"><rect x="10" y="1085" width="170" height="96" fill="none" stroke="#62501b" pointer-events="all" style="stroke: rgb(98, 80, 27);"/></g></g><g data-cell-id="0sHQ5t0J55pFQqvgeFdu-1"><g transform="translate(0.5,0.5)"><path d="M 15 36 L 15 10 L 175 10 L 175 36" fill="#d4af37" stroke="#62501b" stroke-miterlimit="10" pointer-events="all" style="fill: rgb(212, 175, 55); stroke: rgb(98, 80, 27);"/><path d="M 15 36 L 15 126 L 175 126 L 175 36" fill="none" stroke="#62501b" stroke-miterlimit="10" pointer-events="none" style="stroke: rgb(98, 80, 27);"/><path d="M 15 36 L 175 36" fill="none" stroke="#62501b" stroke-miterlimit="10" pointer-events="none" style="stroke: rgb(98, 80, 27);"/></g><g><g fill="#000000" font-family="Helvetica" font-weight="bold" text-anchor="middle" font-size="14px" style="fill: rgb(0, 0, 0);"><text x="95" y="29">MAINTAINER</text></g></g><g data-cell-id="0sHQ5t0J55pFQqvgeFdu-2"><g transform="translate(0.5,0.5)"><rect x="15" y="36" width="160" height="30" fill="none" stroke="none" pointer-events="all"/></g><text x="21" y="53" font-family="Helvetica" font-size="12px" text-anchor="start" fill="#000000" text-decoration="underline">username</text></g><g data-cell-id="0sHQ5t0J55pFQqvgeFdu-3"><g transform="translate(0.5,0.5)"><rect x="15" y="66" width="160" height="30" fill="none" stroke="none" pointer-events="all"/></g><text x="21" y="83" font-family="Helvetica" font-size="12px" text-anchor="start" fill="#000000">joined_at</text></g><g data-cell-id="0sHQ5t0J55pFQqvgeFdu-4"><g transform="translate(0.5,0.5)"><rect x="15" y="96" width="160" height="30" fill="none" stroke="none" pointer-events="all"/></g><text x="21" y="113" font-family="Helvetica" font-size="12px" text-anchor="start" fill="#000000">maintained_project_count()</text></g></g><g data-cell-id="0sHQ5t0J55pFQqvgeFdu-5"><g transform="translate(0.5,0.5)"><path d="M 375 36 L 375 10 L 535 10 L 535 36" fill="#d4af37" stroke="#62501b" stroke-miterlimit="10" pointer-events="all" style="fill: rgb(212, 175, 55); stroke: rgb(98, 80, 27);"/><path d="M 375 36 L 375 126 L 535 126 L 535 36" fill="none" stroke="#62501b" stroke-miterlimit="10" pointer-events="none" style="stroke: rgb(98, 80, 27);"/><path d="M 375 36 L 535 36" fill="none" stroke="#62501b" stroke-miterlimit="10" pointer-events="none" style="stroke: rgb(98, 80, 27);"/></g><g><g fill="#000000" font-family="Helvetica" font-weight="bold" text-anchor="middle" font-size="14px" style="fill: rgb(0, 0, 0);"><text x="455" y="29">PACKAGE</text></g></g><g data-cell-id="0sHQ5t0J55pFQqvgeFdu-6"><g transform="translate(0.5,0.5)"><rect x="375" y="36" width="160" height="30" fill="none" stroke="none" pointer-events="all"/></g><text x="381" y="53" font-family="Helvetica" font-size="12px" text-anchor="start" fill="#000000" text-decoration="underline">name</text></g><g data-cell-id="0sHQ5t0J55pFQqvgeFdu-7"><g transform="translate(0.5,0.5)"><rect x="375" y="66" width="160" height="30" fill="none" stroke="none" pointer-events="all"/></g><text x="381" y="83" font-family="Helvetica" font-size="12px" text-anchor="start" fill="#000000">normalized_name()</text></g><g data-cell-id="0sHQ5t0J55pFQqvgeFdu-8"><g transform="translate(0.5,0.5)"><rect x="375" y="96" width="160" height="30" fill="none" stroke="none" pointer-events="all"/></g><text x="381" y="113" font-family="Helvetica" font-size="12px" text-anchor="start" fill="#000000">lifecycle_status</text></g></g><g data-cell-id="Q23kgnqs2NdtarIExRNF-1"><g transform="translate(0.5,0.5)"><path d="M 275 30.37 L 335 70.37 L 275 110.37 L 215 70.37 Z" fill="#d4af37" stroke="#62501b" stroke-miterlimit="10" pointer-events="all" style="fill: rgb(212, 175, 55); stroke: rgb(98, 80, 27);"/></g><text x="275" y="74" font-family="Helvetica" font-size="12px" text-anchor="middle" fill="#000000">maintained_by</text></g><g data-cell-id="Q23kgnqs2NdtarIExRNF-2"><g transform="translate(0.5,0.5)"><path d="M 215 70.37 L 175 70.37" fill="none" stroke="#62501b" stroke-miterlimit="10" pointer-events="stroke" style="stroke: rgb(98, 80, 27);"/></g></g><g data-cell-id="Q23kgnqs2NdtarIExRNF-3"><g transform="translate(0.5,0.5)"><path d="M 334.62 70.37 L 375 70.37" fill="none" stroke="#62501b" stroke-miterlimit="10" pointer-events="stroke" style="stroke: rgb(98, 80, 27);"/></g></g><g data-cell-id="Q23kgnqs2NdtarIExRNF-4"><g transform="translate(0.5,0.5)"><path d="M 735 36 L 735 10 L 895 10 L 895 36" fill="#d4af37" stroke="#62501b" stroke-miterlimit="10" pointer-events="all" style="fill: rgb(212, 175, 55); stroke: rgb(98, 80, 27);"/><path d="M 735 36 L 735 126 L 895 126 L 895 36" fill="none" stroke="#62501b" stroke-miterlimit="10" pointer-events="none" style="stroke: rgb(98, 80, 27);"/><path d="M 735 36 L 895 36" fill="none" stroke="#62501b" stroke-miterlimit="10" pointer-events="none" style="stroke: rgb(98, 80, 27);"/></g><g><g fill="#000000" font-family="Helvetica" font-weight="bold" text-anchor="middle" font-size="14px" style="fill: rgb(0, 0, 0);"><text x="815" y="29">ORGANIZATION</text></g></g><g data-cell-id="Q23kgnqs2NdtarIExRNF-5"><g transform="translate(0.5,0.5)"><rect x="735" y="36" width="160" height="30" fill="none" stroke="none" pointer-events="all"/></g><text x="741" y="53" font-family="Helvetica" font-size="12px" text-anchor="start" fill="#000000" text-decoration="underline">name</text></g><g data-cell-id="Q23kgnqs2NdtarIExRNF-6"><g transform="translate(0.5,0.5)"><rect x="735" y="66" width="160" height="30" fill="none" stroke="none" pointer-events="all"/></g><text x="741" y="83" font-family="Helvetica" font-size="12px" text-anchor="start" fill="#000000">display_name</text></g><g data-cell-id="Q23kgnqs2NdtarIExRNF-7"><g transform="translate(0.5,0.5)"><rect x="735" y="96" width="160" height="30" fill="none" stroke="none" pointer-events="all"/></g><text x="741" y="113" font-family="Helvetica" font-size="12px" text-anchor="start" fill="#000000">owned_project_count()</text></g></g><g data-cell-id="Q23kgnqs2NdtarIExRNF-8"><g transform="translate(0.5,0.5)"><path d="M 635 30 L 695 70 L 635 110 L 575 70 Z" fill="#d4af37" stroke="#62501b" stroke-miterlimit="10" pointer-events="all" style="fill: rgb(212, 175, 55); stroke: rgb(98, 80, 27);"/></g><text x="635" y="74" font-family="Helvetica" font-size="12px" text-anchor="middle" fill="#000000">owned_by</text></g><g data-cell-id="Q23kgnqs2NdtarIExRNF-9"><g transform="translate(0.5,0.5)"><path d="M 575 70 L 535 70" fill="none" stroke="#62501b" stroke-miterlimit="10" pointer-events="stroke" style="stroke: rgb(98, 80, 27);"/></g></g><g data-cell-id="Q23kgnqs2NdtarIExRNF-10"><g transform="translate(0.5,0.5)"><path d="M 695 70 L 728 70" fill="none" stroke="#62501b" stroke-miterlimit="10" pointer-events="stroke" style="stroke: rgb(98, 80, 27);"/><path d="M 735 70 L 728 73.5 L 728 66.5 Z" fill="#62501b" stroke="#62501b" stroke-miterlimit="10" pointer-events="all" style="fill: rgb(98, 80, 27); stroke: rgb(98, 80, 27);"/></g></g><g data-cell-id="Q23kgnqs2NdtarIExRNF-11"><g transform="translate(0.5,0.5)"><path d="M 455 170 L 515 210 L 455 250 L 395 210 Z" fill="#d4af37" stroke="#62501b" stroke-miterlimit="10" pointer-events="all" style="fill: rgb(212, 175, 55); stroke: rgb(98, 80, 27);"/><path d="M 455 174 L 511 210 L 455 246 L 399 210 Z" fill="#d4af37" stroke="#62501b" stroke-miterlimit="10" pointer-events="all" style="fill: rgb(212, 175, 55); stroke: rgb(98, 80, 27);"/></g><text x="455" y="214" font-family="Helvetica" font-size="12px" text-anchor="middle" fill="#000000">has</text></g><g data-cell-id="Q23kgnqs2NdtarIExRNF-12"><g transform="translate(0.5,0.5)"><path d="M 375 316 L 375 290 L 575 290 L 575 316" fill="#d4af37" stroke="#62501b" stroke-miterlimit="10" pointer-events="all" style="fill: rgb(212, 175, 55); stroke: rgb(98, 80, 27);"/><path d="M 375 316 L 375 916 L 575 916 L 575 316" fill="none" stroke="#62501b" stroke-miterlimit="10" pointer-events="none" style="stroke: rgb(98, 80, 27);"/><path d="M 375 316 L 575 316" fill="none" stroke="#62501b" stroke-miterlimit="10" pointer-events="none" style="stroke: rgb(98, 80, 27);"/></g><g><g fill="#000000" font-family="Helvetica" font-weight="bold" text-anchor="middle" font-size="14px" style="fill: rgb(0, 0, 0);"><text x="475" y="309">RELEASE</text></g></g><g data-cell-id="Q23kgnqs2NdtarIExRNF-13"><g transform="translate(0.5,0.5)"><rect x="375" y="316" width="200" height="30" fill="none" stroke="none" pointer-events="all"/></g><text x="381" y="333" font-family="Helvetica" font-size="12px" text-anchor="start" fill="#000000">version</text></g><g data-cell-id="Q23kgnqs2NdtarIExRNF-19"><g transform="translate(0.5,0.5)"><path d="M 381.5 335 L 420 335" fill="none" stroke="#000000" stroke-width="0.75" stroke-miterlimit="10" stroke-dasharray="2.25 2.25" pointer-events="stroke" style="stroke: rgb(0, 0, 0);"/></g></g><g data-cell-id="Q23kgnqs2NdtarIExRNF-14"><g transform="translate(0.5,0.5)"><rect x="375" y="346" width="200" height="30" fill="none" stroke="none" pointer-events="all"/></g><text x="381" y="363" font-family="Helvetica" font-size="12px" text-anchor="start" fill="#000000">created</text></g><g data-cell-id="Q23kgnqs2NdtarIExRNF-15"><g transform="translate(0.5,0.5)"><rect x="375" y="376" width="200" height="30" fill="none" stroke="none" pointer-events="all"/></g><text x="381" y="393" font-family="Helvetica" font-size="12px" text-anchor="start" fill="#000000">is_prerelease</text></g><g data-cell-id="Q23kgnqs2NdtarIExRNF-21"><g transform="translate(0.5,0.5)"><rect x="375" y="406" width="200" height="30" fill="none" stroke="none" pointer-events="all"/></g><text x="381" y="423" font-family="Helvetica" font-size="12px" text-anchor="start" fill="#000000">yanked</text></g><g data-cell-id="Q23kgnqs2NdtarIExRNF-22"><g transform="translate(0.5,0.5)"><rect x="375" y="436" width="200" height="30" fill="none" stroke="none" pointer-events="all"/></g><text x="381" y="453" font-family="Helvetica" font-size="12px" text-anchor="start" fill="#000000">yanked_reason</text></g><g data-cell-id="Q23kgnqs2NdtarIExRNF-23"><g transform="translate(0.5,0.5)"><rect x="375" y="466" width="200" height="30" fill="none" stroke="none" pointer-events="all"/></g><text x="381" y="483" font-family="Helvetica" font-size="12px" text-anchor="start" fill="#000000">lifecycle_status</text></g><g data-cell-id="Q23kgnqs2NdtarIExRNF-38"><g transform="translate(0.5,0.5)"><rect x="375" y="496" width="200" height="30" fill="none" stroke="none" pointer-events="all"/></g><text x="381" y="513" font-family="Helvetica" font-size="12px" text-anchor="start" fill="#000000">summary</text></g><g data-cell-id="Q23kgnqs2NdtarIExRNF-37"><g transform="translate(0.5,0.5)"><rect x="375" y="526" width="200" height="30" fill="none" stroke="none" pointer-events="all"/></g><text x="381" y="543" font-family="Helvetica" font-size="12px" text-anchor="start" fill="#000000">description</text></g><g data-cell-id="Q23kgnqs2NdtarIExRNF-36"><g transform="translate(0.5,0.5)"><rect x="375" y="556" width="200" height="30" fill="none" stroke="none" pointer-events="all"/></g><text x="381" y="573" font-family="Helvetica" font-size="12px" text-anchor="start" fill="#000000">license</text></g><g data-cell-id="Q23kgnqs2NdtarIExRNF-35"><g transform="translate(0.5,0.5)"><rect x="375" y="586" width="200" height="30" fill="none" stroke="none" pointer-events="all"/></g><text x="381" y="603" font-family="Helvetica" font-size="12px" text-anchor="start" fill="#000000">is_valid_spdx_license()</text></g><g data-cell-id="Q23kgnqs2NdtarIExRNF-33"><g transform="translate(0.5,0.5)"><rect x="375" y="616" width="200" height="30" fill="none" stroke="none" pointer-events="all"/></g><text x="381" y="633" font-family="Helvetica" font-size="12px" text-anchor="start" fill="#000000">meta_author_name</text></g><g data-cell-id="Q23kgnqs2NdtarIExRNF-32"><g transform="translate(0.5,0.5)"><rect x="375" y="646" width="200" height="30" fill="none" stroke="none" pointer-events="all"/></g><text x="381" y="663" font-family="Helvetica" font-size="12px" text-anchor="start" fill="#000000">meta_author_email</text></g><g data-cell-id="Q23kgnqs2NdtarIExRNF-31"><g transform="translate(0.5,0.5)"><rect x="375" y="676" width="200" height="30" fill="none" stroke="none" pointer-events="all"/></g><text x="381" y="693" font-family="Helvetica" font-size="12px" text-anchor="start" fill="#000000">meta_author_email_verified</text></g><g data-cell-id="Q23kgnqs2NdtarIExRNF-29"><g transform="translate(0.5,0.5)"><rect x="375" y="706" width="200" height="30" fill="none" stroke="none" pointer-events="all"/></g><text x="381" y="723" font-family="Helvetica" font-size="12px" text-anchor="start" fill="#000000">meta_maintainer_name</text></g><g data-cell-id="Q23kgnqs2NdtarIExRNF-28"><g transform="translate(0.5,0.5)"><rect x="375" y="736" width="200" height="30" fill="none" stroke="none" pointer-events="all"/></g><text x="381" y="753" font-family="Helvetica" font-size="12px" text-anchor="start" fill="#000000">meta_maintainer_email</text></g><g data-cell-id="Q23kgnqs2NdtarIExRNF-27"><g transform="translate(0.5,0.5)"><rect x="375" y="766" width="200" height="30" fill="none" stroke="none" pointer-events="all"/></g><text x="381" y="783" font-family="Helvetica" font-size="12px" text-anchor="start" fill="#000000">meta_maintainer_email_verified</text></g><g data-cell-id="Q23kgnqs2NdtarIExRNF-26"><g transform="translate(0.5,0.5)"><rect x="375" y="796" width="200" height="30" fill="none" stroke="none" pointer-events="all"/></g><text x="381" y="813" font-family="Helvetica" font-size="12px" text-anchor="start" fill="#000000">requires_python</text></g><g data-cell-id="Q23kgnqs2NdtarIExRNF-39"><g transform="translate(0.5,0.5)"><rect x="375" y="826" width="200" height="30" fill="none" stroke="none" pointer-events="all"/></g><text x="381" y="843" font-family="Helvetica" font-size="12px" text-anchor="start" fill="#000000">is_valid_requires_python()</text></g><g data-cell-id="Q23kgnqs2NdtarIExRNF-25"><g transform="translate(0.5,0.5)"><rect x="375" y="856" width="200" height="30" fill="none" stroke="none" pointer-events="all"/></g><text x="381" y="873" font-family="Helvetica" font-size="12px" text-anchor="start" fill="#000000">{keyword}</text></g><g data-cell-id="Q23kgnqs2NdtarIExRNF-24"><g transform="translate(0.5,0.5)"><rect x="375" y="886" width="200" height="30" fill="none" stroke="none" pointer-events="all"/></g><text x="381" y="903" font-family="Helvetica" font-size="12px" text-anchor="start" fill="#000000">{extra_name}</text></g></g><g data-cell-id="Q23kgnqs2NdtarIExRNF-16"><g transform="translate(0.5,0.5)"><path d="M 455 170 L 455 133" fill="none" stroke="#62501b" stroke-miterlimit="10" pointer-events="stroke" style="stroke: rgb(98, 80, 27);"/><path d="M 455 126 L 458.5 133 L 451.5 133 Z" fill="#62501b" stroke="#62501b" stroke-miterlimit="10" pointer-events="all" style="fill: rgb(98, 80, 27); stroke: rgb(98, 80, 27);"/></g></g><g data-cell-id="Q23kgnqs2NdtarIExRNF-17"><g transform="translate(0.5,0.5)"><path d="M 457 250 L 457 285 M 453 285 L 453 250 M 453 285" fill="none" stroke="#62501b" stroke-miterlimit="10" pointer-events="all" style="stroke: rgb(98, 80, 27);"/></g></g><g data-cell-id="Q23kgnqs2NdtarIExRNF-40"><g transform="translate(0.5,0.5)"><path d="M 455 960 L 515 1000 L 455 1040 L 395 1000 Z" fill="#d4af37" stroke="#62501b" stroke-miterlimit="10" pointer-events="all" style="fill: rgb(212, 175, 55); stroke: rgb(98, 80, 27);"/><path d="M 455 964 L 511 1000 L 455 1036 L 399 1000 Z" fill="#d4af37" stroke="#62501b" stroke-miterlimit="10" pointer-events="all" style="fill: rgb(212, 175, 55); stroke: rgb(98, 80, 27);"/></g><text x="455" y="1004" font-family="Helvetica" font-size="12px" text-anchor="middle" fill="#000000">distributes</text></g><g data-cell-id="Q23kgnqs2NdtarIExRNF-41"><g transform="translate(0.5,0.5)"><path d="M 375 1116 L 375 1090 L 535 1090 L 535 1116" fill="#d4af37" stroke="#62501b" stroke-miterlimit="10" pointer-events="all" style="fill: rgb(212, 175, 55); stroke: rgb(98, 80, 27);"/><path d="M 375 1116 L 375 1356 L 535 1356 L 535 1116" fill="none" stroke="#62501b" stroke-miterlimit="10" pointer-events="none" style="stroke: rgb(98, 80, 27);"/><path d="M 375 1116 L 535 1116" fill="none" stroke="#62501b" stroke-miterlimit="10" pointer-events="none" style="stroke: rgb(98, 80, 27);"/></g><g><g fill="#000000" font-family="Helvetica" font-weight="bold" text-anchor="middle" font-size="14px" style="fill: rgb(0, 0, 0);"><text x="455" y="1109">RELEASE_FILE</text></g></g><g data-cell-id="Q23kgnqs2NdtarIExRNF-42"><g transform="translate(0.5,0.5)"><rect x="375" y="1116" width="160" height="30" fill="none" stroke="none" pointer-events="all"/></g><text x="381" y="1133" font-family="Helvetica" font-size="12px" text-anchor="start" fill="#000000">filename</text></g><g data-cell-id="Q23kgnqs2NdtarIExRNF-43"><g transform="translate(0.5,0.5)"><path d="M 381.5 1135 L 426 1135" fill="none" stroke="#000000" stroke-width="0.75" stroke-miterlimit="10" stroke-dasharray="2.25 2.25" pointer-events="stroke" style="stroke: rgb(0, 0, 0);"/></g></g><g data-cell-id="Q23kgnqs2NdtarIExRNF-44"><g transform="translate(0.5,0.5)"><rect x="375" y="1146" width="160" height="30" fill="none" stroke="none" pointer-events="all"/></g><text x="381" y="1163" font-family="Helvetica" font-size="12px" text-anchor="start" fill="#000000">path</text></g><g data-cell-id="Q23kgnqs2NdtarIExRNF-45"><g transform="translate(0.5,0.5)"><rect x="375" y="1176" width="160" height="30" fill="none" stroke="none" pointer-events="all"/></g><text x="381" y="1193" font-family="Helvetica" font-size="12px" text-anchor="start" fill="#000000">packagetype()</text></g><g data-cell-id="Q23kgnqs2NdtarIExRNF-46"><g transform="translate(0.5,0.5)"><rect x="375" y="1206" width="160" height="30" fill="none" stroke="none" pointer-events="all"/></g><text x="381" y="1223" font-family="Helvetica" font-size="12px" text-anchor="start" fill="#000000">size</text></g><g data-cell-id="Q23kgnqs2NdtarIExRNF-47"><g transform="translate(0.5,0.5)"><rect x="375" y="1236" width="160" height="30" fill="none" stroke="none" pointer-events="all"/></g><text x="381" y="1253" font-family="Helvetica" font-size="12px" text-anchor="start" fill="#000000">upload_time</text></g><g data-cell-id="Q23kgnqs2NdtarIExRNF-48"><g transform="translate(0.5,0.5)"><rect x="375" y="1266" width="160" height="30" fill="none" stroke="none" pointer-events="all"/></g><text x="381" y="1283" font-family="Helvetica" font-size="12px" text-anchor="start" fill="#000000">uploaded_via</text></g><g data-cell-id="Q23kgnqs2NdtarIExRNF-49"><g transform="translate(0.5,0.5)"><rect x="375" y="1296" width="160" height="30" fill="none" stroke="none" pointer-events="all"/></g><text x="381" y="1313" font-family="Helvetica" font-size="12px" text-anchor="start" fill="#000000">is_trusted_publishing</text></g><g data-cell-id="Q23kgnqs2NdtarIExRNF-50"><g transform="translate(0.5,0.5)"><rect x="375" y="1326" width="160" height="30" fill="none" stroke="none" pointer-events="all"/></g><text x="381" y="1343" font-family="Helvetica" font-size="12px" text-anchor="start" fill="#000000">{wheel_tag}</text></g></g><g data-cell-id="Q23kgnqs2NdtarIExRNF-63"><g transform="translate(0.5,0.5)"><path d="M 455 960 L 455 928" fill="none" stroke="#62501b" stroke-miterlimit="10" pointer-events="stroke" style="stroke: rgb(98, 80, 27);"/><path d="M 455 921 L 458.5 928 L 451.5 928 Z" fill="#62501b" stroke="#62501b" stroke-miterlimit="10" pointer-events="all" style="fill: rgb(98, 80, 27); stroke: rgb(98, 80, 27);"/></g></g><g data-cell-id="Q23kgnqs2NdtarIExRNF-64"><g transform="translate(0.5,0.5)"><path d="M 457 1040 L 457 1085 M 453 1085 L 453 1040 M 453 1085" fill="none" stroke="#62501b" stroke-miterlimit="10" pointer-events="all" style="stroke: rgb(98, 80, 27);"/></g></g><g data-cell-id="Q23kgnqs2NdtarIExRNF-65"><g transform="translate(0.5,0.5)"><path d="M 15 1116 L 15 1090 L 175 1090 L 175 1116" fill="#d4af37" stroke="#62501b" stroke-miterlimit="10" pointer-events="all" style="fill: rgb(212, 175, 55); stroke: rgb(98, 80, 27);"/><path d="M 15 1116 L 15 1176 L 175 1176 L 175 1116" fill="none" stroke="#62501b" stroke-miterlimit="10" pointer-events="none" style="stroke: rgb(98, 80, 27);"/><path d="M 15 1116 L 175 1116" fill="none" stroke="#62501b" stroke-miterlimit="10" pointer-events="none" style="stroke: rgb(98, 80, 27);"/></g><g><g fill="#000000" font-family="Helvetica" font-weight="bold" text-anchor="middle" font-size="14px" style="fill: rgb(0, 0, 0);"><text x="95" y="1109">FILE_HASH</text></g></g><g data-cell-id="Q23kgnqs2NdtarIExRNF-66"><g transform="translate(0.5,0.5)"><rect x="15" y="1116" width="160" height="30" fill="none" stroke="none" pointer-events="all"/></g><text x="21" y="1133" font-family="Helvetica" font-size="12px" text-anchor="start" fill="#000000">algorithm</text></g><g data-cell-id="Q23kgnqs2NdtarIExRNF-67"><g transform="translate(0.5,0.5)"><path d="M 21.5 1135 L 71 1135" fill="none" stroke="#000000" stroke-width="0.75" stroke-miterlimit="10" stroke-dasharray="2.25 2.25" pointer-events="stroke" style="stroke: rgb(0, 0, 0);"/></g></g><g data-cell-id="Q23kgnqs2NdtarIExRNF-68"><g transform="translate(0.5,0.5)"><rect x="15" y="1146" width="160" height="30" fill="none" stroke="none" pointer-events="all"/></g><text x="21" y="1163" font-family="Helvetica" font-size="12px" text-anchor="start" fill="#000000">digest</text></g></g><g data-cell-id="Q23kgnqs2NdtarIExRNF-76"><g transform="translate(0.5,0.5)"><path d="M 275 1090 L 335 1130 L 275 1170 L 215 1130 Z" fill="#d4af37" stroke="#62501b" stroke-miterlimit="10" pointer-events="all" style="fill: rgb(212, 175, 55); stroke: rgb(98, 80, 27);"/><path d="M 275 1094 L 331 1130 L 275 1166 L 219 1130 Z" fill="#d4af37" stroke="#62501b" stroke-miterlimit="10" pointer-events="all" style="fill: rgb(212, 175, 55); stroke: rgb(98, 80, 27);"/></g><text x="275" y="1134" font-family="Helvetica" font-size="12px" text-anchor="middle" fill="#000000">checks</text></g><g data-cell-id="Q23kgnqs2NdtarIExRNF-77"><g transform="translate(0.5,0.5)"><path d="M 334.77 1129.8 L 362 1129.8" fill="none" stroke="#62501b" stroke-miterlimit="10" pointer-events="stroke" style="stroke: rgb(98, 80, 27);"/><path d="M 370 1129.8 L 362 1133.3 L 362 1126.3 Z" fill="#62501b" stroke="#62501b" stroke-miterlimit="10" pointer-events="all" style="fill: rgb(98, 80, 27); stroke: rgb(98, 80, 27);"/></g></g><g data-cell-id="Q23kgnqs2NdtarIExRNF-78"><g transform="translate(0.5,0.5)"><path d="M 215.09 1132 L 180 1132 M 180 1128 L 215.1 1128 M 180 1128" fill="none" stroke="#62501b" stroke-miterlimit="10" pointer-events="all" style="stroke: rgb(98, 80, 27);"/></g></g><g data-cell-id="Q23kgnqs2NdtarIExRNF-79"><g transform="translate(0.5,0.5)"><path d="M 775 396 L 775 370 L 935 370 L 935 396" fill="#d4af37" stroke="#62501b" stroke-miterlimit="10" pointer-events="all" style="fill: rgb(212, 175, 55); stroke: rgb(98, 80, 27);"/><path d="M 775 396 L 775 456 L 935 456 L 935 396" fill="none" stroke="#62501b" stroke-miterlimit="10" pointer-events="none" style="stroke: rgb(98, 80, 27);"/><path d="M 775 396 L 935 396" fill="none" stroke="#62501b" stroke-miterlimit="10" pointer-events="none" style="stroke: rgb(98, 80, 27);"/></g><g><g fill="#000000" font-family="Helvetica" font-weight="bold" text-anchor="middle" font-size="14px" style="fill: rgb(0, 0, 0);"><text x="855" y="389">CLASSIFIER</text></g></g><g data-cell-id="Q23kgnqs2NdtarIExRNF-80"><g transform="translate(0.5,0.5)"><rect x="775" y="396" width="160" height="30" fill="none" stroke="none" pointer-events="all"/></g><text x="781" y="413" font-family="Helvetica" font-size="12px" text-anchor="start" fill="#000000" text-decoration="underline">category</text></g><g data-cell-id="Q23kgnqs2NdtarIExRNF-82"><g transform="translate(0.5,0.5)"><rect x="775" y="426" width="160" height="30" fill="none" stroke="none" pointer-events="all"/></g><text x="781" y="443" font-family="Helvetica" font-size="12px" text-anchor="start" fill="#000000" text-decoration="underline">value</text></g></g><g data-cell-id="Q23kgnqs2NdtarIExRNF-83"><g transform="translate(0.5,0.5)"><path d="M 675 373 L 735 413 L 675 453 L 615 413 Z" fill="#d4af37" stroke="#62501b" stroke-miterlimit="10" pointer-events="all" style="fill: rgb(212, 175, 55); stroke: rgb(98, 80, 27);"/></g><text x="675" y="417" font-family="Helvetica" font-size="12px" text-anchor="middle" fill="#000000">tagged_with</text></g><g data-cell-id="Q23kgnqs2NdtarIExRNF-84"><g transform="translate(0.5,0.5)"><path d="M 735 413 L 775 413" fill="none" stroke="#62501b" stroke-miterlimit="10" pointer-events="stroke" style="stroke: rgb(98, 80, 27);"/></g></g><g data-cell-id="Q23kgnqs2NdtarIExRNF-85"><g transform="translate(0.5,0.5)"><path d="M 615.08 413 L 580 413" fill="none" stroke="#62501b" stroke-miterlimit="10" pointer-events="stroke" style="stroke: rgb(98, 80, 27);"/></g></g><g data-cell-id="Q23kgnqs2NdtarIExRNF-86"><g transform="translate(0.5,0.5)"><path d="M 15 399 L 15 373 L 175 373 L 175 399" fill="#d4af37" stroke="#62501b" stroke-miterlimit="10" pointer-events="all" style="fill: rgb(212, 175, 55); stroke: rgb(98, 80, 27);"/><path d="M 15 399 L 15 489 L 175 489 L 175 399" fill="none" stroke="#62501b" stroke-miterlimit="10" pointer-events="none" style="stroke: rgb(98, 80, 27);"/><path d="M 15 399 L 175 399" fill="none" stroke="#62501b" stroke-miterlimit="10" pointer-events="none" style="stroke: rgb(98, 80, 27);"/></g><g><g fill="#000000" font-family="Helvetica" font-weight="bold" text-anchor="middle" font-size="14px" style="fill: rgb(0, 0, 0);"><text x="95" y="392">PROJECT_LINK</text></g></g><g data-cell-id="Q23kgnqs2NdtarIExRNF-87"><g transform="translate(0.5,0.5)"><rect x="15" y="399" width="160" height="30" fill="none" stroke="none" pointer-events="all"/></g><text x="21" y="416" font-family="Helvetica" font-size="12px" text-anchor="start" fill="#000000">label</text></g><g data-cell-id="Q23kgnqs2NdtarIExRNF-88"><g transform="translate(0.5,0.5)"><path d="M 21.5 418 L 47 418" fill="none" stroke="#000000" stroke-width="0.75" stroke-miterlimit="10" stroke-dasharray="2.25 2.25" pointer-events="stroke" style="stroke: rgb(0, 0, 0);"/></g></g><g data-cell-id="Q23kgnqs2NdtarIExRNF-89"><g transform="translate(0.5,0.5)"><rect x="15" y="429" width="160" height="30" fill="none" stroke="none" pointer-events="all"/></g><text x="21" y="446" font-family="Helvetica" font-size="12px" text-anchor="start" fill="#000000">url</text></g><g data-cell-id="Q23kgnqs2NdtarIExRNF-94"><g transform="translate(0.5,0.5)"><rect x="15" y="459" width="160" height="30" fill="none" stroke="none" pointer-events="all"/></g><text x="21" y="476" font-family="Helvetica" font-size="12px" text-anchor="start" fill="#000000">is_verified</text></g></g><g data-cell-id="Q23kgnqs2NdtarIExRNF-90"><g transform="translate(0.5,0.5)"><path d="M 275 373 L 335 413 L 275 453 L 215 413 Z" fill="#d4af37" stroke="#62501b" stroke-miterlimit="10" pointer-events="all" style="fill: rgb(212, 175, 55); stroke: rgb(98, 80, 27);"/><path d="M 275 377 L 331 413 L 275 449 L 219 413 Z" fill="#d4af37" stroke="#62501b" stroke-miterlimit="10" pointer-events="all" style="fill: rgb(212, 175, 55); stroke: rgb(98, 80, 27);"/></g><text x="275" y="417" font-family="Helvetica" font-size="12px" text-anchor="middle" fill="#000000">links</text></g><g data-cell-id="Q23kgnqs2NdtarIExRNF-91"><g transform="translate(0.5,0.5)"><path d="M 334.92 413 L 363 413" fill="none" stroke="#62501b" stroke-miterlimit="10" pointer-events="stroke" style="stroke: rgb(98, 80, 27);"/><path d="M 370 413 L 363 416.5 L 363 409.5 Z" fill="#62501b" stroke="#62501b" stroke-miterlimit="10" pointer-events="all" style="fill: rgb(98, 80, 27); stroke: rgb(98, 80, 27);"/></g></g><g data-cell-id="Q23kgnqs2NdtarIExRNF-92"><g transform="translate(0.5,0.5)"><path d="M 215.69 415 L 180 415 M 180 411 L 215.66 411 M 180 411" fill="none" stroke="#62501b" stroke-miterlimit="10" pointer-events="all" style="stroke: rgb(98, 80, 27);"/></g></g><g data-cell-id="Q23kgnqs2NdtarIExRNF-95"><g transform="translate(0.5,0.5)"><path d="M 735 1003 L 735 977 L 895 977 L 895 1003" fill="#d4af37" stroke="#62501b" stroke-miterlimit="10" pointer-events="all" style="fill: rgb(212, 175, 55); stroke: rgb(98, 80, 27);"/><path d="M 735 1003 L 735 1363 L 895 1363 L 895 1003" fill="none" stroke="#62501b" stroke-miterlimit="10" pointer-events="none" style="stroke: rgb(98, 80, 27);"/><path d="M 735 1003 L 895 1003" fill="none" stroke="#62501b" stroke-miterlimit="10" pointer-events="none" style="stroke: rgb(98, 80, 27);"/></g><g><g fill="#000000" font-family="Helvetica" font-weight="bold" text-anchor="middle" font-size="14px" style="fill: rgb(0, 0, 0);"><text x="815" y="996">ATTESTATION</text></g></g><g data-cell-id="Q23kgnqs2NdtarIExRNF-96"><g transform="translate(0.5,0.5)"><rect x="735" y="1003" width="160" height="30" fill="none" stroke="none" pointer-events="all"/></g><text x="741" y="1020" font-family="Helvetica" font-size="12px" text-anchor="start" fill="#000000" text-decoration="underline">sigstore_log_index</text></g><g data-cell-id="Q23kgnqs2NdtarIExRNF-98"><g transform="translate(0.5,0.5)"><rect x="735" y="1033" width="160" height="30" fill="none" stroke="none" pointer-events="all"/></g><text x="741" y="1050" font-family="Helvetica" font-size="12px" text-anchor="start" fill="#000000">statement_type</text></g><g data-cell-id="Q23kgnqs2NdtarIExRNF-99"><g transform="translate(0.5,0.5)"><rect x="735" y="1063" width="160" height="30" fill="none" stroke="none" pointer-events="all"/></g><text x="741" y="1080" font-family="Helvetica" font-size="12px" text-anchor="start" fill="#000000">predicate_type</text></g><g data-cell-id="Q23kgnqs2NdtarIExRNF-100"><g transform="translate(0.5,0.5)"><rect x="735" y="1093" width="160" height="30" fill="none" stroke="none" pointer-events="all"/></g><text x="741" y="1110" font-family="Helvetica" font-size="12px" text-anchor="start" fill="#000000">subject_name</text></g><g data-cell-id="Q23kgnqs2NdtarIExRNF-101"><g transform="translate(0.5,0.5)"><rect x="735" y="1123" width="160" height="30" fill="none" stroke="none" pointer-events="all"/></g><text x="741" y="1140" font-family="Helvetica" font-size="12px" text-anchor="start" fill="#000000">subject_digest</text></g><g data-cell-id="Q23kgnqs2NdtarIExRNF-102"><g transform="translate(0.5,0.5)"><rect x="735" y="1153" width="160" height="30" fill="none" stroke="none" pointer-events="all"/></g><text x="741" y="1170" font-family="Helvetica" font-size="12px" text-anchor="start" fill="#000000">integration_time</text></g><g data-cell-id="Q23kgnqs2NdtarIExRNF-103"><g transform="translate(0.5,0.5)"><rect x="735" y="1183" width="160" height="30" fill="none" stroke="none" pointer-events="all"/></g><text x="741" y="1200" font-family="Helvetica" font-size="12px" text-anchor="start" fill="#000000">source_repo</text></g><g data-cell-id="Q23kgnqs2NdtarIExRNF-104"><g transform="translate(0.5,0.5)"><rect x="735" y="1213" width="160" height="30" fill="none" stroke="none" pointer-events="all"/></g><text x="741" y="1230" font-family="Helvetica" font-size="12px" text-anchor="start" fill="#000000">source_reference</text></g><g data-cell-id="Q23kgnqs2NdtarIExRNF-108"><g transform="translate(0.5,0.5)"><rect x="735" y="1243" width="160" height="30" fill="none" stroke="none" pointer-events="all"/></g><text x="741" y="1260" font-family="Helvetica" font-size="12px" text-anchor="start" fill="#000000">token_issuer</text></g><g data-cell-id="Q23kgnqs2NdtarIExRNF-107"><g transform="translate(0.5,0.5)"><rect x="735" y="1273" width="160" height="30" fill="none" stroke="none" pointer-events="all"/></g><text x="741" y="1290" font-family="Helvetica" font-size="12px" text-anchor="start" fill="#000000">runner_environment</text></g><g data-cell-id="Q23kgnqs2NdtarIExRNF-106"><g transform="translate(0.5,0.5)"><rect x="735" y="1303" width="160" height="30" fill="none" stroke="none" pointer-events="all"/></g><text x="741" y="1320" font-family="Helvetica" font-size="12px" text-anchor="start" fill="#000000">publisher_workflow</text></g><g data-cell-id="Q23kgnqs2NdtarIExRNF-105"><g transform="translate(0.5,0.5)"><rect x="735" y="1333" width="160" height="30" fill="none" stroke="none" pointer-events="all"/></g><text x="741" y="1350" font-family="Helvetica" font-size="12px" text-anchor="start" fill="#000000">trigger_event</text></g></g><g data-cell-id="Q23kgnqs2NdtarIExRNF-111"><g transform="translate(0.5,0.5)"><path d="M 635 1093 L 695 1133 L 635 1173 L 575 1133 Z" fill="#d4af37" stroke="#62501b" stroke-miterlimit="10" pointer-events="all" style="fill: rgb(212, 175, 55); stroke: rgb(98, 80, 27);"/></g><text x="635" y="1137" font-family="Helvetica" font-size="12px" text-anchor="middle" fill="#000000">proves</text></g><g data-cell-id="Q23kgnqs2NdtarIExRNF-113"><g transform="translate(0.5,0.5)"><path d="M 575.12 1133 L 548 1133" fill="none" stroke="#62501b" stroke-miterlimit="10" pointer-events="stroke" style="stroke: rgb(98, 80, 27);"/><path d="M 540 1133 L 548 1129.5 L 548 1136.5 Z" fill="#62501b" stroke="#62501b" stroke-miterlimit="10" pointer-events="all" style="fill: rgb(98, 80, 27); stroke: rgb(98, 80, 27);"/></g></g><g data-cell-id="Q23kgnqs2NdtarIExRNF-114"><g transform="translate(0.5,0.5)"><path d="M 694.8 1131 L 735 1131 M 735 1135 L 694.79 1135 M 735 1135" fill="none" stroke="#62501b" stroke-miterlimit="10" pointer-events="all" style="stroke: rgb(98, 80, 27);"/></g></g><g data-cell-id="Q23kgnqs2NdtarIExRNF-117"><g transform="translate(0.5,0.5)"><rect x="370" y="1085" width="170" height="276" fill="none" stroke="#62501b" pointer-events="all" style="stroke: rgb(98, 80, 27);"/></g></g><g data-cell-id="Q23kgnqs2NdtarIExRNF-118"><g transform="translate(0.5,0.5)"><rect x="10" y="368" width="170" height="126" fill="none" stroke="#62501b" pointer-events="all" style="stroke: rgb(98, 80, 27);"/></g></g><g data-cell-id="Q23kgnqs2NdtarIExRNF-119"><g transform="translate(0.5,0.5)"><rect x="370" y="285" width="210" height="636" fill="none" stroke="#62501b" pointer-events="all" style="stroke: rgb(98, 80, 27);"/></g></g></g></g></g></svg>